<svg width="85" height="56" viewBox="0 0 85 56" fill="none" xmlns="http://www.w3.org/2000/svg">
<path d="M22.202 40.544C20.538 40.544 19.706 39.8293 19.706 38.4C19.706 37.9307 19.77 37.3973 19.898 36.8C20.0473 36.1813 20.25 35.392 20.506 34.432C20.8047 33.4293 21.0287 32.576 21.178 31.872C21.3273 31.168 21.402 30.5387 21.402 29.984C21.402 28.5333 20.762 27.808 19.482 27.808C19.1407 27.808 18.7887 27.8507 18.426 27.936L15.866 40H11.258L15.61 19.648L20.346 19.008L18.778 26.4H19.034C19.866 26.4 20.634 26.112 21.338 25.536C22.042 24.96 22.586 24.2453 22.97 23.392C23.3753 22.5173 23.578 21.664 23.578 20.832C23.578 19.8507 23.2793 19.0507 22.682 18.432C22.106 17.792 21.2313 17.472 20.058 17.472C18.33 17.472 16.8153 17.7813 15.514 18.4C14.2127 19.0187 13.1993 19.9147 12.474 21.088C11.77 22.2613 11.418 23.648 11.418 25.248C11.418 26.0373 11.4927 26.592 11.642 26.912C11.7913 27.2107 11.866 27.3813 11.866 27.424C10.714 27.424 9.85 27.1893 9.274 26.72C8.71933 26.2293 8.442 25.4293 8.442 24.32C8.442 22.9547 8.99667 21.632 10.106 20.352C11.2367 19.0507 12.6767 18.0053 14.426 17.216C16.1753 16.4053 17.9247 16 19.674 16C21.274 16 22.618 16.2347 23.706 16.704C24.794 17.1733 25.6047 17.8027 26.138 18.592C26.6713 19.36 26.938 20.2027 26.938 21.12C26.938 22.1227 26.6287 23.1253 26.01 24.128C25.3913 25.1307 24.5487 25.952 23.482 26.592C24.2927 26.8267 24.858 27.2213 25.178 27.776C25.5193 28.3093 25.69 28.9813 25.69 29.792C25.69 30.4107 25.6153 31.072 25.466 31.776C25.3167 32.4587 25.1033 33.312 24.826 34.336C24.6553 34.9973 24.4953 35.648 24.346 36.288C24.1967 36.928 24.122 37.4613 24.122 37.888C24.122 38.3787 24.2287 38.816 24.442 39.2C24.6767 39.584 24.986 39.8507 25.37 40C24.0687 40.3627 23.0127 40.544 22.202 40.544ZM32.0448 40.192C30.4661 40.192 29.2394 39.7867 28.3648 38.976C27.4901 38.144 27.0527 36.8533 27.0527 35.104C27.0527 33.632 27.3407 32.0107 27.9168 30.24C28.4928 28.4693 29.4314 26.944 30.7328 25.664C32.0341 24.3627 33.6874 23.712 35.6927 23.712C38.0394 23.712 39.2128 24.736 39.2128 26.784C39.2128 27.9787 38.8714 29.0773 38.1888 30.08C37.5061 31.0827 36.5994 31.8933 35.4688 32.512C34.3381 33.1093 33.1328 33.4507 31.8528 33.536C31.8101 34.176 31.7888 34.6027 31.7888 34.816C31.7888 35.8613 31.9701 36.576 32.3328 36.96C32.6954 37.3227 33.2821 37.504 34.0928 37.504C35.2448 37.504 36.2261 37.2373 37.0368 36.704C37.8688 36.1707 38.7754 35.36 39.7568 34.272H40.8448C38.4768 38.2187 35.5434 40.192 32.0448 40.192ZM32.1088 32C32.8981 31.9573 33.6448 31.68 34.3488 31.168C35.0741 30.656 35.6501 30.0053 36.0768 29.216C36.5248 28.4267 36.7488 27.5947 36.7488 26.72C36.7488 25.8453 36.4821 25.408 35.9488 25.408C35.1808 25.408 34.4234 26.08 33.6768 27.424C32.9514 28.768 32.4288 30.2933 32.1088 32ZM36.87 48C35.8673 48 34.9927 47.6693 34.246 47.008C33.478 46.368 33.094 45.5467 33.094 44.544C33.094 43.6267 33.3287 42.8693 33.798 42.272C34.2673 41.6747 34.8753 41.1947 35.622 40.832C36.3687 40.4907 37.3607 40.128 38.598 39.744L42.47 21.472C42.8967 19.424 43.6433 18.0053 44.71 17.216C45.798 16.4267 46.9927 16.032 48.294 16.032C49.2967 16.032 50.1713 16.3627 50.918 17.024C51.686 17.664 52.07 18.4853 52.07 19.488C52.07 19.9787 52.038 20.416 51.974 20.8H50.47C50.5127 20.3307 50.534 20.0427 50.534 19.936C50.534 19.5947 50.4167 19.328 50.182 19.136C49.9473 18.944 49.6593 18.848 49.318 18.848C48.87 18.848 48.4327 19.0507 48.006 19.456C47.5793 19.84 47.27 20.512 47.078 21.472L46.534 24H48.87L48.646 25.28H46.278L42.598 42.56C42.1713 44.6293 41.4353 46.048 40.39 46.816C39.3447 47.6053 38.1713 48 36.87 48ZM36.134 45.152C36.9873 45.152 37.5953 44.32 37.958 42.656L38.374 40.8C37.2433 41.184 36.3793 41.6213 35.782 42.112C35.1633 42.624 34.854 43.2853 34.854 44.096C34.854 44.352 34.982 44.5867 35.238 44.8C35.494 45.0347 35.7927 45.152 36.134 45.152ZM54.8413 40.16C53.3266 40.16 51.8866 39.7867 50.5213 39.04C49.1559 38.2933 48.4733 36.8533 48.4733 34.72C48.4733 33.3333 48.8039 32.224 49.4653 31.392C50.1479 30.56 51.1079 30.144 52.3453 30.144C53.7959 30.144 54.6279 30.688 54.8413 31.776C53.7533 31.84 53.0066 32.2133 52.6013 32.896C52.2173 33.5787 52.0253 34.3573 52.0253 35.232C52.0253 36.1493 52.2919 36.864 52.8253 37.376C53.3586 37.888 54.0093 38.144 54.7773 38.144C55.4599 38.144 56.1106 37.9413 56.7292 37.536C57.3692 37.1307 57.8919 36.512 58.2973 35.68C58.7026 34.848 58.9053 33.8453 58.9053 32.672C58.9053 31.3707 58.5426 30.1653 57.8173 29.056C57.1133 27.9253 56.0573 27.1147 54.6493 26.624C55.7799 26.304 56.7613 25.8027 57.5933 25.12C58.4253 24.416 59.0546 23.648 59.4813 22.816C59.9079 21.9627 60.1213 21.152 60.1213 20.384C60.1213 19.5947 59.9079 18.9653 59.4813 18.496C59.0759 18.0053 58.4786 17.76 57.6892 17.76C56.9213 17.76 56.3026 17.9947 55.8333 18.464C55.3853 18.912 55.1613 19.5093 55.1613 20.256C55.1613 20.768 55.2573 21.248 55.4493 21.696C55.6626 22.144 55.9719 22.4213 56.3773 22.528C55.5879 23.2533 54.7773 23.616 53.9453 23.616C53.2839 23.616 52.7293 23.3813 52.2812 22.912C51.8546 22.4213 51.6413 21.7493 51.6413 20.896C51.6413 19.936 51.9293 19.0933 52.5052 18.368C53.1026 17.6213 53.9026 17.0453 54.9053 16.64C55.9079 16.2347 57.0279 16.032 58.2653 16.032C59.5239 16.032 60.6013 16.2453 61.4973 16.672C62.3933 17.0987 63.0653 17.664 63.5133 18.368C63.9826 19.072 64.2173 19.8507 64.2173 20.704C64.2173 21.8133 63.8439 22.9013 63.0973 23.968C62.3506 25.0347 61.2626 25.9307 59.8333 26.656C61.1773 27.104 62.1799 27.7973 62.8413 28.736C63.5239 29.6533 63.8653 30.72 63.8653 31.936C63.8653 33.2587 63.4813 34.56 62.7133 35.84C61.9666 37.0987 60.8999 38.1333 59.5133 38.944C58.1479 39.7547 56.5906 40.16 54.8413 40.16ZM66.8948 24H71.5028L71.0868 25.984C71.8121 25.344 72.4628 24.8533 73.0388 24.512C73.6361 24.1707 74.2761 24 74.9588 24C75.6414 24 76.1748 24.2347 76.5588 24.704C76.9641 25.1733 77.1668 25.7387 77.1668 26.4C77.1668 27.0187 76.9641 27.5627 76.5588 28.032C76.1534 28.5013 75.5881 28.736 74.8628 28.736C74.3934 28.736 74.0734 28.6293 73.9028 28.416C73.7534 28.1813 73.6361 27.8507 73.5508 27.424C73.4868 27.1467 73.4228 26.944 73.3588 26.816C73.2948 26.688 73.1774 26.624 73.0068 26.624C72.5588 26.624 72.1748 26.72 71.8548 26.912C71.5561 27.0827 71.1614 27.392 70.6708 27.84L68.1108 40H63.5027L66.8948 24Z" fill="#61BC84"/>
</svg>
